<svg xmlns="http://www.w3.org/2000/svg" width="24" height="24" fill="none" viewBox="0 0 40 40"><path fill="currentColor" d="M31.878 19.198a8.121 8.121 0 00-8.121 8.122c0 1.588.463 3.067 1.251 4.318l-5.841 5.84a1.477 1.477 0 002.088 2.089l5.755-5.755a8.068 8.068 0 004.867 1.63 8.121 8.121 0 008.121-8.122 8.118 8.118 0 00-8.12-8.122zm.029 14.237a6.048 6.048 0 01-4.045-1.548l-.057-.052a6.559 6.559 0 01-.402-.403c-.03-.032-.06-.064-.088-.097a6.642 6.642 0 01-.328-.413c-.029-.039-.06-.077-.087-.117a6.001 6.001 0 01-.347-.558A6.085 6.085 0 1137.99 27.35a6.082 6.082 0 01-6.083 6.085zm3.606-9.093a4.73 4.73 0 01-.723 6.431c-.363.31-.898.162-1.137-.253-.238-.413-.081-.937.247-1.282a2.99 2.99 0 00.228-3.862 2.957 2.957 0 00-.578-.584c-.38-.29-.615-.782-.445-1.229.17-.446.677-.676 1.083-.428a4.74 4.74 0 011.325 1.207zM40 18.407v3.185c0 .081-.015.16-.022.24a9.785 9.785 0 00-8.1-4.302 9.8 9.8 0 00-2.135.242C28.728 13.323 24.757 10 20 10c-5.523 0-10 4.477-10 10s4.477 10 10 10a9.97 9.97 0 002.397-.302c.141.559.32 1.109.558 1.635L17.988 36.3a3.125 3.125 0 00-.701 3.367 2.634 2.634 0 01-1.352-2.28v-1.584c0-1.28-1.105-2.363-2.438-2.363-.667 0-1.282.282-1.72.77l-1.012 1a2.631 2.631 0 01-1.823.728c-.687 0-1.365-.26-1.824-.728L4.795 32.9c-1-1-1-2.623 0-3.623l.98-.959c.522-.468.813-1.083.813-1.748 0-1.333-1.083-2.415-2.376-2.415H2.627C1.198 24.153 0 22.978 0 21.572v-3.165c0-1.417 1.198-2.582 2.627-2.572h1.585c1.291 0 2.376-1.083 2.376-2.415 0-.677-.291-1.27-.813-1.738l-.98-.979c-1-.988-1-2.623 0-3.623l2.323-2.29a2.631 2.631 0 011.824-.728c.686 0 1.366.258 1.825.726l1.011 1c.459.49 1.064.77 1.73.77 1.334 0 2.439-1.083 2.439-2.363V2.613C15.947 1.197 17.092 0 18.53 0h3.168C23.105 0 24.2 1.208 24.2 2.613v1.572c0 1.28 1.137 2.363 2.47 2.363.677 0 1.323-.281 1.793-.801l.98-.979a2.631 2.631 0 011.824-.728c.686 0 1.365.27 1.823.728l2.325 2.3a2.554 2.554 0 010 3.634l-1.022 1c-.5.448-.781 1.041-.781 1.706 0 1.334 1.083 2.415 2.376 2.415h1.584c1.416.002 2.428 1.169 2.428 2.584zM22.333 20A2.336 2.336 0 0120 22.333 2.336 2.336 0 0117.667 20 2.336 2.336 0 0120 17.667 2.336 2.336 0 0122.333 20zm5.815-1.727c-.798-3.768-4.145-6.606-8.148-6.606-4.595 0-8.333 3.738-8.333 8.333 0 4.595 3.738 8.333 8.333 8.333.74 0 1.443-.128 2.127-.31-.017-.235-.039-.468-.039-.703 0-4.077 2.509-7.577 6.06-9.047zM20 24a4.001 4.001 0 010-8 4 4 0 110 8z"/></svg>